<?xml version="1.0" encoding="UTF-8" standalone="no"?>
<svg
   xmlns:dc="http://purl.org/dc/elements/1.1/"
   xmlns:cc="http://creativecommons.org/ns#"
   xmlns:rdf="http://www.w3.org/1999/02/22-rdf-syntax-ns#"
   xmlns:svg="http://www.w3.org/2000/svg"
   xmlns="http://www.w3.org/2000/svg"
   viewBox="0 0 276.79999 321.56"
   height="321.56"
   width="276.79999"
   xml:space="preserve"
   id="svg2"
   version="1.1"><metadata
     id="metadata8"><rdf:RDF><cc:Work
         rdf:about=""><dc:format>image/svg+xml</dc:format><dc:type
           rdf:resource="http://purl.org/dc/dcmitype/StillImage" /></cc:Work></rdf:RDF></metadata><defs
     id="defs6" /><g
     transform="matrix(1.3333333,0,0,-1.3333333,0,321.56)"
     id="g10"><g
       transform="scale(0.1)"
       id="g12"><path
         id="path14"
         style="fill:#1d1b19;fill-opacity:1;fill-rule:evenodd;stroke:none"
         d="M 250.32,1.37109 C 660.945,297.82 1324.55,389.48 1736.56,13.6484 1845.14,128.91 1956.74,244.852 2074.85,354.32 c 1.2,45.219 -18.33,54.43 -47.29,47.282 l -65.94,-71.473 c -382.79,232.199 -636.4,271.711 -943,123.891 -37.788,-11.282 -58.214,-8.192 -40.436,26.562 103.696,112.938 208.136,215.27 288.446,326.809 66.91,87.66 185.08,272.819 164.68,685.799 -24.52,317.09 -191.51,841.08 229.37,862.84 64.92,3.13 68.1,56.87 4.76,51.52 -136.54,-4.46 -257.29,-28.95 -352.59,-85.77 -331.202,-138.3 -208.41,-661.19 -191.15,-933.45 38.12,-420.701 -45.94,-754.51 -380.614,-1015.31 -8.523,10.652 -12.996,22.902 -6.867,37.339 359.191,484.391 195.961,943.091 178.394,1463.541 17.715,227.77 131.047,388.06 274.247,511.47 0.27,0.44 24.81,47.99 -39.49,11.43 C 977.609,2300.33 864.016,2246.61 619.117,2357.64 362.277,2481.46 110.613,2385.6 1.08594,2088.82 2.88281,2041 13.8008,2032.59 40.9805,2059.35 l 66.6875,69.07 c 49.414,38.87 96.789,16.44 183.387,4.76 172.527,-68.41 326.789,-72.03 464.414,-16.67 32.676,10.71 43.789,3.57 33.34,-21.44 -150.836,-172.27 -209.582,-379.46 -176.239,-621.6 5.754,-45.43 -8.136,-62.51 -30.965,-66.69 l -158.242,-2.54 C 315.273,1383.1 252.211,1326.48 245.336,1253.61 l 138.598,-4.01 c 132.515,-23.58 265.492,-100.55 251.855,-265.541 l -158.375,2.382 C 444.719,990.191 293.352,916.801 380.359,891.77 543.809,848.73 664.777,776.609 659.789,629.789 644.152,405.059 468.68,215.191 211.906,34.1289 L 250.32,1.37109" /><path
         id="path16"
         style="fill:none;stroke:#1d1b19;stroke-width:2.16000009;stroke-linecap:butt;stroke-linejoin:miter;stroke-miterlimit:22.92560005;stroke-dasharray:none;stroke-opacity:1"
         d="M 250.32,1.37109 C 660.945,297.82 1324.55,389.48 1736.56,13.6484 1845.14,128.91 1956.74,244.852 2074.85,354.32 c 1.2,45.219 -18.33,54.43 -47.29,47.282 l -65.94,-71.473 c -382.79,232.199 -636.4,271.711 -943,123.891 -37.788,-11.282 -58.214,-8.192 -40.436,26.562 103.696,112.938 208.136,215.27 288.446,326.809 66.91,87.66 185.08,272.819 164.68,685.799 -24.52,317.09 -191.51,841.08 229.37,862.84 64.92,3.13 68.1,56.87 4.76,51.52 -136.54,-4.46 -257.29,-28.95 -352.59,-85.77 -331.202,-138.3 -208.41,-661.19 -191.15,-933.45 38.12,-420.701 -45.94,-754.51 -380.614,-1015.31 -8.523,10.652 -12.996,22.902 -6.867,37.339 359.191,484.391 195.961,943.091 178.394,1463.541 17.715,227.77 131.047,388.06 274.247,511.47 0.27,0.44 24.81,47.99 -39.49,11.43 C 977.609,2300.33 864.016,2246.61 619.117,2357.64 362.277,2481.46 110.613,2385.6 1.08594,2088.82 2.88281,2041 13.8008,2032.59 40.9805,2059.35 l 66.6875,69.07 c 49.414,38.87 96.789,16.44 183.387,4.76 172.527,-68.41 326.789,-72.03 464.414,-16.67 32.676,10.71 43.789,3.57 33.34,-21.44 -150.836,-172.27 -209.582,-379.46 -176.239,-621.6 5.754,-45.43 -8.136,-62.51 -30.965,-66.69 l -158.242,-2.54 C 315.273,1383.1 252.211,1326.48 245.336,1253.61 l 138.598,-4.01 c 132.515,-23.58 265.492,-100.55 251.855,-265.541 l -158.375,2.382 C 444.719,990.191 293.352,916.801 380.359,891.77 543.809,848.73 664.777,776.609 659.789,629.789 644.152,405.059 468.68,215.191 211.906,34.1289 Z" /></g></g></svg>